<mxfile host="app.diagrams.net" agent="Mozilla/5.0 (Windows NT 10.0; Win64; x64) AppleWebKit/537.36 (KHTML, like Gecko) Chrome/129.0.0.0 Safari/537.36" version="24.7.17">
  <diagram name="Page-1" id="U8G2BHOQSllWGMfAniUl">
    <mxGraphModel dx="860" dy="484" grid="1" gridSize="10" guides="1" tooltips="1" connect="1" arrows="1" fold="1" page="1" pageScale="1" pageWidth="827" pageHeight="1169" math="0" shadow="0">
      <root>
        <mxCell id="0" />
        <mxCell id="1" parent="0" />
        <mxCell id="tWKgGG3GGvBg3Yi4ij3p-3" value="«Component»&lt;br&gt;&lt;b&gt;Client&lt;/b&gt;" style="html=1;dropTarget=0;whiteSpace=wrap;fillColor=#bac8d3;strokeColor=#23445d;" vertex="1" parent="1">
          <mxGeometry x="20" y="250" width="160" height="90" as="geometry" />
        </mxCell>
        <mxCell id="tWKgGG3GGvBg3Yi4ij3p-4" value="" style="shape=module;jettyWidth=8;jettyHeight=4;fillColor=#dae8fc;strokeColor=#6c8ebf;gradientColor=#7ea6e0;" vertex="1" parent="tWKgGG3GGvBg3Yi4ij3p-3">
          <mxGeometry x="1" width="20" height="20" relative="1" as="geometry">
            <mxPoint x="-27" y="7" as="offset" />
          </mxGeometry>
        </mxCell>
        <mxCell id="tWKgGG3GGvBg3Yi4ij3p-5" value="" style="shape=providedRequiredInterface;html=1;verticalLabelPosition=bottom;sketch=0;flipH=1;" vertex="1" parent="1">
          <mxGeometry x="308" y="291" width="20" height="20" as="geometry" />
        </mxCell>
        <mxCell id="tWKgGG3GGvBg3Yi4ij3p-6" value="&lt;p style=&quot;margin:0px;margin-top:6px;text-align:center;&quot;&gt;&lt;b&gt;Serveur applicatif&lt;/b&gt;&lt;/p&gt;&lt;hr size=&quot;1&quot; style=&quot;border-style:solid;&quot;&gt;&lt;p style=&quot;margin:0px;margin-left:8px;&quot;&gt;&lt;br&gt;&lt;/p&gt;" style="align=left;overflow=fill;html=1;dropTarget=0;whiteSpace=wrap;strokeWidth=2;fillColor=#f8cecc;strokeColor=#b85450;" vertex="1" parent="1">
          <mxGeometry x="430" y="150" width="360" height="240" as="geometry" />
        </mxCell>
        <mxCell id="tWKgGG3GGvBg3Yi4ij3p-7" value="" style="shape=component;jettyWidth=8;jettyHeight=4;fillColor=#f8cecc;strokeColor=#b85450;gradientColor=#ea6b66;" vertex="1" parent="tWKgGG3GGvBg3Yi4ij3p-6">
          <mxGeometry x="1" width="20" height="20" relative="1" as="geometry">
            <mxPoint x="-24" y="4" as="offset" />
          </mxGeometry>
        </mxCell>
        <mxCell id="tWKgGG3GGvBg3Yi4ij3p-8" value="Services" style="html=1;whiteSpace=wrap;" vertex="1" parent="1">
          <mxGeometry x="460" y="276" width="110" height="50" as="geometry" />
        </mxCell>
        <mxCell id="tWKgGG3GGvBg3Yi4ij3p-12" value="" style="html=1;rounded=0;flipH=0;" vertex="1" parent="1">
          <mxGeometry x="410" y="293" width="20" height="16" as="geometry" />
        </mxCell>
        <mxCell id="tWKgGG3GGvBg3Yi4ij3p-16" value="" style="endArrow=open;html=1;rounded=0;align=center;verticalAlign=bottom;dashed=1;endFill=0;labelBackgroundColor=none;exitX=1.024;exitY=0.414;exitDx=0;exitDy=0;exitPerimeter=0;entryX=0.019;entryY=0.407;entryDx=0;entryDy=0;entryPerimeter=0;" edge="1" parent="1" target="tWKgGG3GGvBg3Yi4ij3p-18">
          <mxGeometry relative="1" as="geometry">
            <mxPoint x="569.6400000000001" y="296.69999999999993" as="sourcePoint" />
            <mxPoint x="737" y="286" as="targetPoint" />
          </mxGeometry>
        </mxCell>
        <mxCell id="tWKgGG3GGvBg3Yi4ij3p-17" value="&lt;font style=&quot;font-size: 10px;&quot;&gt;&lt;b&gt;&amp;lt;&amp;lt;use&amp;gt;&amp;gt;&lt;/b&gt;&lt;/font&gt;" style="resizable=0;html=1;align=center;verticalAlign=top;labelBackgroundColor=none;rotation=-30;" connectable="0" vertex="1" parent="tWKgGG3GGvBg3Yi4ij3p-16">
          <mxGeometry relative="1" as="geometry">
            <mxPoint x="-16" y="-21" as="offset" />
          </mxGeometry>
        </mxCell>
        <mxCell id="tWKgGG3GGvBg3Yi4ij3p-18" value="Livres" style="html=1;whiteSpace=wrap;fillColor=#fad7ac;strokeColor=#b46504;strokeWidth=2;" vertex="1" parent="1">
          <mxGeometry x="670" y="210" width="90" height="40" as="geometry" />
        </mxCell>
        <mxCell id="tWKgGG3GGvBg3Yi4ij3p-19" value="Commandes" style="html=1;whiteSpace=wrap;fillColor=#fad7ac;strokeColor=#b46504;strokeWidth=2;" vertex="1" parent="1">
          <mxGeometry x="670" y="305" width="90" height="40" as="geometry" />
        </mxCell>
        <mxCell id="tWKgGG3GGvBg3Yi4ij3p-20" value="" style="endArrow=open;html=1;rounded=0;align=center;verticalAlign=bottom;dashed=1;endFill=0;labelBackgroundColor=none;entryX=0;entryY=0.5;entryDx=0;entryDy=0;" edge="1" parent="1" target="tWKgGG3GGvBg3Yi4ij3p-19">
          <mxGeometry relative="1" as="geometry">
            <mxPoint x="570" y="297" as="sourcePoint" />
            <mxPoint x="682" y="236" as="targetPoint" />
          </mxGeometry>
        </mxCell>
        <mxCell id="tWKgGG3GGvBg3Yi4ij3p-22" value="" style="endArrow=open;html=1;rounded=0;entryX=0.014;entryY=0.425;entryDx=0;entryDy=0;entryPerimeter=0;exitX=1.027;exitY=0.392;exitDx=0;exitDy=0;exitPerimeter=0;endFill=0;" edge="1" parent="1">
          <mxGeometry width="50" height="50" relative="1" as="geometry">
            <mxPoint x="430.81000000000006" y="300.7599999999999" as="sourcePoint" />
            <mxPoint x="461.53999999999996" y="300.25" as="targetPoint" />
          </mxGeometry>
        </mxCell>
        <mxCell id="tWKgGG3GGvBg3Yi4ij3p-26" value="«Component»&lt;br&gt;&lt;b&gt;Système de paiement&lt;/b&gt;" style="html=1;dropTarget=0;whiteSpace=wrap;fillColor=#f5f5f5;gradientColor=#b3b3b3;strokeColor=#666666;" vertex="1" parent="1">
          <mxGeometry x="540" y="480" width="140" height="90" as="geometry" />
        </mxCell>
        <mxCell id="tWKgGG3GGvBg3Yi4ij3p-27" value="" style="shape=module;jettyWidth=8;jettyHeight=4;fillColor=#d5e8d4;gradientColor=#97d077;strokeColor=#82b366;" vertex="1" parent="tWKgGG3GGvBg3Yi4ij3p-26">
          <mxGeometry x="1" width="20" height="20" relative="1" as="geometry">
            <mxPoint x="-27" y="7" as="offset" />
          </mxGeometry>
        </mxCell>
        <mxCell id="tWKgGG3GGvBg3Yi4ij3p-28" value="" style="endArrow=open;html=1;rounded=0;align=center;verticalAlign=bottom;dashed=1;endFill=0;labelBackgroundColor=none;exitX=0.5;exitY=1;exitDx=0;exitDy=0;entryX=0.5;entryY=0;entryDx=0;entryDy=0;" edge="1" parent="1" source="tWKgGG3GGvBg3Yi4ij3p-29" target="tWKgGG3GGvBg3Yi4ij3p-26">
          <mxGeometry relative="1" as="geometry">
            <mxPoint x="570" y="472" as="sourcePoint" />
            <mxPoint x="610" y="464" as="targetPoint" />
          </mxGeometry>
        </mxCell>
        <mxCell id="tWKgGG3GGvBg3Yi4ij3p-29" value="" style="html=1;rounded=0;flipH=0;" vertex="1" parent="1">
          <mxGeometry x="600" y="390" width="20" height="16" as="geometry" />
        </mxCell>
        <mxCell id="tWKgGG3GGvBg3Yi4ij3p-33" value="" style="endArrow=open;html=1;rounded=0;entryX=0.5;entryY=0;entryDx=0;entryDy=0;endFill=0;" edge="1" parent="1" target="tWKgGG3GGvBg3Yi4ij3p-29">
          <mxGeometry width="50" height="50" relative="1" as="geometry">
            <mxPoint x="720" y="345" as="sourcePoint" />
            <mxPoint x="630.73" y="360" as="targetPoint" />
            <Array as="points">
              <mxPoint x="720" y="360" />
              <mxPoint x="610" y="360" />
            </Array>
          </mxGeometry>
        </mxCell>
        <mxCell id="tWKgGG3GGvBg3Yi4ij3p-34" value="" style="html=1;rounded=0;flipH=0;" vertex="1" parent="1">
          <mxGeometry x="180" y="293" width="20" height="16" as="geometry" />
        </mxCell>
        <mxCell id="tWKgGG3GGvBg3Yi4ij3p-35" value="" style="endArrow=none;html=1;rounded=0;exitX=1;exitY=0.5;exitDx=0;exitDy=0;entryX=1;entryY=0.5;entryDx=0;entryDy=0;entryPerimeter=0;" edge="1" parent="1" source="tWKgGG3GGvBg3Yi4ij3p-34" target="tWKgGG3GGvBg3Yi4ij3p-5">
          <mxGeometry width="50" height="50" relative="1" as="geometry">
            <mxPoint x="250" y="343" as="sourcePoint" />
            <mxPoint x="300" y="293" as="targetPoint" />
          </mxGeometry>
        </mxCell>
        <mxCell id="tWKgGG3GGvBg3Yi4ij3p-36" value="" style="endArrow=none;html=1;rounded=0;exitX=1;exitY=0.5;exitDx=0;exitDy=0;" edge="1" parent="1">
          <mxGeometry width="50" height="50" relative="1" as="geometry">
            <mxPoint x="328" y="300.81" as="sourcePoint" />
            <mxPoint x="410" y="301" as="targetPoint" />
          </mxGeometry>
        </mxCell>
        <mxCell id="tWKgGG3GGvBg3Yi4ij3p-37" value="&lt;font style=&quot;font-size: 10px;&quot;&gt;&amp;lt;&amp;lt;Delegate&amp;gt;&amp;gt;&lt;/font&gt;" style="resizable=0;html=1;align=center;verticalAlign=top;labelBackgroundColor=none;" connectable="0" vertex="1" parent="1">
          <mxGeometry x="636.0045153550099" y="335.99552786029415" as="geometry" />
        </mxCell>
        <mxCell id="tWKgGG3GGvBg3Yi4ij3p-38" value="&lt;font style=&quot;font-size: 10px;&quot;&gt;&lt;b&gt;&amp;lt;&amp;lt;use&amp;gt;&amp;gt;&lt;/b&gt;&lt;/font&gt;" style="resizable=0;html=1;align=center;verticalAlign=top;labelBackgroundColor=none;rotation=15;direction=south;" connectable="0" vertex="1" parent="1">
          <mxGeometry x="625.0045153550099" y="286.9955278602941" as="geometry" />
        </mxCell>
        <mxCell id="tWKgGG3GGvBg3Yi4ij3p-39" value="Commander Livre" style="text;html=1;align=center;verticalAlign=middle;resizable=0;points=[];autosize=1;strokeColor=none;fillColor=none;" vertex="1" parent="1">
          <mxGeometry x="260" y="257" width="120" height="30" as="geometry" />
        </mxCell>
      </root>
    </mxGraphModel>
  </diagram>
</mxfile>
